<svg width="1006" height="253" viewBox="0 0 1006 253" fill="none" xmlns="http://www.w3.org/2000/svg">
<path d="M40.1 3.99998V1.99998H38.3994L38.126 3.6785L40.1 3.99998ZM92.25 3.99998L94.224 3.6785L93.9506 1.99998H92.25V3.99998ZM132.15 249V251H134.502L134.124 248.679L132.15 249ZM93.65 249L91.6704 249.285L91.9172 251H93.65V249ZM86.65 200.35L88.6296 200.065L84.65 200.35H86.65ZM86.65 201.05V203.05H88.65V201.05H86.65ZM42.9 201.05V199.05H41.1708L40.921 200.761L42.9 201.05ZM35.9 249V251H37.6292L37.879 249.289L35.9 249ZM0.2 249L-1.77399 248.679L-2.15206 251H0.2V249ZM82.1 167.8V169.8H84.4032L84.0802 167.52L82.1 167.8ZM64.95 46.7L66.9302 46.4196L66.6867 44.7H64.95V46.7ZM64.25 46.7V44.7H62.5083L62.269 46.4252L64.25 46.7ZM47.45 167.8L45.469 167.525L45.1534 169.8H47.45V167.8ZM40.1 5.99998H92.25V1.99998H40.1V5.99998ZM90.276 4.32146L130.176 249.321L134.124 248.679L94.224 3.6785L90.276 4.32146ZM132.15 247H93.65V251H132.15V247ZM95.6296 248.715L88.6296 200.065L84.6704 200.635L91.6704 249.285L95.6296 248.715ZM84.65 200.35V201.05H88.65V200.35H84.65ZM86.65 199.05H42.9V203.05H86.65V199.05ZM40.921 200.761L33.921 248.711L37.879 249.289L44.879 201.339L40.921 200.761ZM35.9 247H0.2V251H35.9V247ZM2.17399 249.321L42.074 4.32146L38.126 3.6785L-1.77399 248.679L2.17399 249.321ZM84.0802 167.52L66.9302 46.4196L62.9698 46.9804L80.1198 168.08L84.0802 167.52ZM64.95 44.7H64.25V48.7H64.95V44.7ZM62.269 46.4252L45.469 167.525L49.431 168.075L66.231 46.9748L62.269 46.4252ZM47.45 169.8H82.1V165.8H47.45V169.8ZM150.829 3.99998V1.99998H148.829V3.99998H150.829ZM252.329 18L250.897 19.3962L250.905 19.4053L250.914 19.4142L252.329 18ZM259.679 100.95L257.911 100.014L257.9 100.035L257.89 100.056L259.679 100.95ZM241.129 118.1L240.359 116.254L239.129 116.767V118.1H241.129ZM241.129 118.8H239.129V120.23L240.482 120.693L241.129 118.8ZM254.779 234.3L256.193 235.714L254.779 234.3ZM150.829 249H148.829V251H150.829V249ZM221.529 97.8L220.114 96.3858L220.093 96.4072L220.072 96.4293L221.529 97.8ZM222.579 44.95L220.99 46.1649L221.012 46.1936L221.035 46.2214L222.579 44.95ZM189.329 39V37H187.329V39H189.329ZM189.329 103.75H187.329V105.75H189.329V103.75ZM226.429 208.75L227.891 210.115L227.913 210.091L227.934 210.067L226.429 208.75ZM225.379 145.4L223.849 146.688L223.885 146.732L223.924 146.773L225.379 145.4ZM189.329 138.75V136.75H187.329V138.75H189.329ZM189.329 214H187.329V216H189.329V214ZM150.829 5.99998H208.929V1.99998H150.829V5.99998ZM208.929 5.99998C228.5 5.99998 242.33 10.6104 250.897 19.3962L253.761 16.6038C244.127 6.72294 229.024 1.99998 208.929 1.99998V5.99998ZM250.914 19.4142C259.49 27.9903 263.979 41.491 263.979 60.35H267.979C267.979 40.9423 263.367 26.2097 253.743 16.5858L250.914 19.4142ZM263.979 60.35V70.15H267.979V60.35H263.979ZM263.979 70.15C263.979 82.5479 261.909 92.4619 257.911 100.014L261.446 101.886C265.848 93.5714 267.979 82.9521 267.979 70.15H263.979ZM257.89 100.056C254.144 107.548 248.329 112.933 240.359 116.254L241.898 119.946C250.728 116.267 257.28 110.219 261.467 101.844L257.89 100.056ZM239.129 118.1V118.8H243.129V118.1H239.129ZM240.482 120.693C249.601 123.806 256.376 129.383 260.91 137.454C265.47 145.574 267.829 156.344 267.829 169.9H271.829C271.829 155.923 269.403 144.409 264.397 135.496C259.364 126.534 251.789 120.327 241.775 116.907L240.482 120.693ZM267.829 169.9V190.9H271.829V169.9H267.829ZM267.829 190.9C267.829 209.452 262.911 223.339 253.364 232.886L256.193 235.714C266.713 225.194 271.829 210.148 271.829 190.9H267.829ZM253.364 232.886C244.063 242.187 230.187 247 211.379 247V251C230.836 251 245.894 246.013 256.193 235.714L253.364 232.886ZM211.379 247H150.829V251H211.379V247ZM152.829 249V3.99998H148.829V249H152.829ZM204.379 105.75C212.397 105.75 218.739 103.682 222.985 99.1707L220.072 96.4293C216.851 99.8515 211.76 101.75 204.379 101.75V105.75ZM222.943 99.2142C227.468 94.6889 229.479 87.3806 229.479 77.85H225.479C225.479 86.9861 223.522 92.9777 220.114 96.3858L222.943 99.2142ZM229.479 77.85V64.2H225.479V77.85H229.479ZM229.479 64.2C229.479 55.1745 227.832 48.1836 224.122 43.6786L221.035 46.2214C223.858 49.6497 225.479 55.4921 225.479 64.2H229.479ZM224.167 43.7351C220.631 39.1112 215.03 37 207.879 37V41C214.26 41 218.459 42.8554 220.99 46.1649L224.167 43.7351ZM207.879 37H189.329V41H207.879V37ZM187.329 39V103.75H191.329V39H187.329ZM189.329 105.75H204.379V101.75H189.329V105.75ZM211.379 216C218.465 216 224.111 214.164 227.891 210.115L224.966 207.385C222.213 210.336 217.825 212 211.379 212V216ZM227.934 210.067C231.689 205.775 233.329 198.858 233.329 189.85H229.329C229.329 198.575 227.701 204.259 224.923 207.433L227.934 210.067ZM233.329 189.85V168.5H229.329V189.85H233.329ZM233.329 168.5C233.329 157.208 231.359 148.819 226.833 144.027L223.924 146.773C227.332 150.381 229.329 157.392 229.329 168.5H233.329ZM226.908 144.112C222.63 139.032 215.62 136.75 206.479 136.75V140.75C215.07 140.75 220.66 142.902 223.849 146.688L226.908 144.112ZM206.479 136.75H189.329V140.75H206.479V136.75ZM187.329 138.75V214H191.329V138.75H187.329ZM189.329 216H211.379V212H189.329V216ZM304.582 236.4L306.043 235.034L304.582 236.4ZM304.582 16.6L306.043 17.9658L304.582 16.6ZM391.382 16.6L389.921 17.9658V17.9658L391.382 16.6ZM391.382 236.4L389.921 235.034L391.382 236.4ZM347.982 250.5C329.469 250.5 315.598 245.255 306.043 235.034L303.121 237.766C313.634 249.012 328.696 254.5 347.982 254.5V250.5ZM306.043 235.034C296.459 224.781 291.532 210.166 291.532 190.9H287.532C287.532 210.834 292.639 226.552 303.121 237.766L306.043 235.034ZM291.532 190.9V62.1H287.532V190.9H291.532ZM291.532 62.1C291.532 42.8339 296.459 28.219 306.043 17.9658L303.121 15.2342C292.639 26.4477 287.532 42.1661 287.532 62.1H291.532ZM306.043 17.9658C315.598 7.74509 329.469 2.49998 347.982 2.49998V-1.50002C328.696 -1.50002 313.634 3.98822 303.121 15.2342L306.043 17.9658ZM347.982 2.49998C366.496 2.49998 380.367 7.74509 389.921 17.9658L392.843 15.2342C382.331 3.98822 367.269 -1.50002 347.982 -1.50002V2.49998ZM389.921 17.9658C399.506 28.219 404.432 42.8339 404.432 62.1H408.432C408.432 42.1661 403.326 26.4477 392.843 15.2342L389.921 17.9658ZM404.432 62.1V190.9H408.432V62.1H404.432ZM404.432 190.9C404.432 210.166 399.506 224.781 389.921 235.034L392.843 237.766C403.326 226.552 408.432 210.834 408.432 190.9H404.432ZM389.921 235.034C380.367 245.255 366.496 250.5 347.982 250.5V254.5C367.269 254.5 382.331 249.012 392.843 237.766L389.921 235.034ZM347.982 219.5C355.052 219.5 360.682 217.342 364.487 212.736C368.231 208.204 369.932 201.625 369.932 193.35H365.932C365.932 201.175 364.309 206.671 361.403 210.189C358.558 213.633 354.213 215.5 347.982 215.5V219.5ZM369.932 193.35V59.65H365.932V193.35H369.932ZM369.932 59.65C369.932 51.3748 368.231 44.7964 364.487 40.2637C360.682 35.6579 355.052 33.5 347.982 33.5V37.5C354.213 37.5 358.558 39.3671 361.403 42.8113C364.309 46.3286 365.932 51.8252 365.932 59.65H369.932ZM347.982 33.5C340.913 33.5 335.283 35.6579 331.478 40.2637C327.734 44.7964 326.032 51.3748 326.032 59.65H330.032C330.032 51.8252 331.656 46.3286 334.562 42.8113C337.407 39.3671 341.752 37.5 347.982 37.5V33.5ZM326.032 59.65V193.35H330.032V59.65H326.032ZM326.032 193.35C326.032 201.625 327.734 208.204 331.478 212.736C335.283 217.342 340.913 219.5 347.982 219.5V215.5C341.752 215.5 337.407 213.633 334.562 210.189C331.656 206.671 330.032 201.175 330.032 193.35H326.032ZM445.769 236.75L444.292 238.099L444.3 238.107L444.307 238.115L445.769 236.75ZM431.069 3.99998V1.99998H429.069V3.99998H431.069ZM469.569 3.99998H471.569V1.99998H469.569V3.99998ZM474.469 211.9L472.964 213.217L472.987 213.243L473.01 213.268L474.469 211.9ZM503.519 211.9L502.06 210.532L502.037 210.557L502.014 210.583L503.519 211.9ZM508.769 3.99998V1.99998H506.769V3.99998H508.769ZM545.869 3.99998H547.869V1.99998H545.869V3.99998ZM531.169 236.75L532.631 238.115L532.639 238.107L532.646 238.099L531.169 236.75ZM488.469 250.5C470.182 250.5 456.548 245.368 447.231 235.385L444.307 238.115C454.59 249.132 469.423 254.5 488.469 254.5V250.5ZM447.246 235.401C437.889 225.153 433.069 210.418 433.069 190.9H429.069C429.069 211.048 434.049 226.88 444.292 238.099L447.246 235.401ZM433.069 190.9V3.99998H429.069V190.9H433.069ZM431.069 5.99998H469.569V1.99998H431.069V5.99998ZM467.569 3.99998V193.7H471.569V3.99998H467.569ZM467.569 193.7C467.569 202.275 469.221 208.939 472.964 213.217L475.974 210.583C473.184 207.394 471.569 201.925 471.569 193.7H467.569ZM473.01 213.268C476.973 217.495 482.453 219.5 489.169 219.5V215.5C483.285 215.5 478.966 213.772 475.928 210.532L473.01 213.268ZM489.169 219.5C495.879 219.5 501.28 217.496 505.024 213.217L502.014 210.583C499.225 213.771 495.06 215.5 489.169 215.5V219.5ZM504.978 213.268C508.991 208.988 510.769 202.301 510.769 193.7H506.769C506.769 201.899 505.048 207.345 502.06 210.532L504.978 213.268ZM510.769 193.7V3.99998H506.769V193.7H510.769ZM508.769 5.99998H545.869V1.99998H508.769V5.99998ZM543.869 3.99998V190.9H547.869V3.99998H543.869ZM543.869 190.9C543.869 210.418 539.049 225.153 529.692 235.401L532.646 238.099C542.889 226.88 547.869 211.048 547.869 190.9H543.869ZM529.707 235.385C520.39 245.368 506.757 250.5 488.469 250.5V254.5C507.515 254.5 522.348 249.132 532.631 238.115L529.707 235.385ZM603.389 39H605.389V37H603.389V39ZM563.139 39H561.139V41H563.139V39ZM563.139 3.99998V1.99998H561.139V3.99998H563.139ZM682.139 3.99998H684.139V1.99998H682.139V3.99998ZM682.139 39V41H684.139V39H682.139ZM641.889 39V37H639.889V39H641.889ZM641.889 249V251H643.889V249H641.889ZM603.389 249H601.389V251H603.389V249ZM603.389 37H563.139V41H603.389V37ZM565.139 39V3.99998H561.139V39H565.139ZM563.139 5.99998H682.139V1.99998H563.139V5.99998ZM680.139 3.99998V39H684.139V3.99998H680.139ZM682.139 37H641.889V41H682.139V37ZM639.889 39V249H643.889V39H639.889ZM641.889 247H603.389V251H641.889V247ZM605.389 249V39H601.389V249H605.389ZM770.134 236.75L768.657 238.099L768.665 238.107L768.672 238.115L770.134 236.75ZM755.434 3.99998V1.99998H753.434V3.99998H755.434ZM793.934 3.99998H795.934V1.99998H793.934V3.99998ZM798.834 211.9L797.329 213.217L797.352 213.243L797.375 213.268L798.834 211.9ZM827.884 211.9L826.425 210.532L826.402 210.557L826.379 210.583L827.884 211.9ZM833.134 3.99998V1.99998H831.134V3.99998H833.134ZM870.234 3.99998H872.234V1.99998H870.234V3.99998ZM855.534 236.75L856.996 238.115L857.004 238.107L857.011 238.099L855.534 236.75ZM812.834 250.5C794.547 250.5 780.913 245.368 771.596 235.385L768.672 238.115C778.955 249.132 793.788 254.5 812.834 254.5V250.5ZM771.611 235.401C762.254 225.153 757.434 210.418 757.434 190.9H753.434C753.434 211.048 758.415 226.88 768.657 238.099L771.611 235.401ZM757.434 190.9V3.99998H753.434V190.9H757.434ZM755.434 5.99998H793.934V1.99998H755.434V5.99998ZM791.934 3.99998V193.7H795.934V3.99998H791.934ZM791.934 193.7C791.934 202.275 793.586 208.939 797.329 213.217L800.34 210.583C797.549 207.394 795.934 201.925 795.934 193.7H791.934ZM797.375 213.268C801.338 217.495 806.819 219.5 813.534 219.5V215.5C807.65 215.5 803.331 213.772 800.293 210.532L797.375 213.268ZM813.534 219.5C820.244 219.5 825.645 217.496 829.39 213.217L826.379 210.583C823.59 213.771 819.425 215.5 813.534 215.5V219.5ZM829.343 213.268C833.356 208.988 835.134 202.301 835.134 193.7H831.134C831.134 201.899 829.413 207.345 826.425 210.532L829.343 213.268ZM835.134 193.7V3.99998H831.134V193.7H835.134ZM833.134 5.99998H870.234V1.99998H833.134V5.99998ZM868.234 3.99998V190.9H872.234V3.99998H868.234ZM868.234 190.9C868.234 210.418 863.415 225.153 854.057 235.401L857.011 238.099C867.254 226.88 872.234 211.048 872.234 190.9H868.234ZM854.072 235.385C844.755 245.368 831.122 250.5 812.834 250.5V254.5C831.88 254.5 846.713 249.132 856.996 238.115L854.072 235.385ZM905.355 236.75L903.862 238.081L903.869 238.089L903.876 238.097L905.355 236.75ZM891.005 176.9V174.9H889.005V176.9H891.005ZM927.405 176.9H929.405V174.9H927.405V176.9ZM962.055 211.9L960.555 210.577L960.55 210.583L962.055 211.9ZM960.305 166.05L958.581 167.064L958.587 167.075L958.594 167.087L960.305 166.05ZM934.405 137.7L933.081 139.2L933.092 139.209L934.405 137.7ZM901.155 99.9L899.403 100.865L899.407 100.873L899.412 100.881L901.155 99.9ZM906.405 16.6L907.867 17.9646L907.874 17.9566L907.882 17.9485L906.405 16.6ZM990.755 16.6L989.245 17.9123L989.261 17.9298L989.276 17.947L990.755 16.6ZM1005.1 72.25V74.25H1007.1V72.25H1005.1ZM968.705 72.25H966.705V74.25H968.705V72.25ZM963.805 41.45L962.261 42.7214L962.28 42.7445L962.3 42.767L963.805 41.45ZM937.205 83.8L935.494 84.8366L935.506 84.8553L935.517 84.8737L937.205 83.8ZM963.455 111.8L962.142 113.309L962.142 113.309L963.455 111.8ZM996.705 149.95L994.938 150.887L996.705 149.95ZM990.755 236.4L989.294 235.034L989.286 235.043L989.278 235.051L990.755 236.4ZM947.705 250.5C929.414 250.5 915.911 245.367 906.833 235.403L903.876 238.097C913.932 249.133 928.662 254.5 947.705 254.5V250.5ZM906.848 235.419C897.714 225.171 893.005 210.429 893.005 190.9H889.005C889.005 211.037 893.862 226.862 903.862 238.081L906.848 235.419ZM893.005 190.9V176.9H889.005V190.9H893.005ZM891.005 178.9H927.405V174.9H891.005V178.9ZM925.405 176.9V193.7H929.405V176.9H925.405ZM925.405 193.7C925.405 201.864 927.108 208.36 930.859 212.835C934.667 217.378 940.295 219.5 947.355 219.5V215.5C941.115 215.5 936.767 213.656 933.925 210.265C931.026 206.807 929.405 201.403 929.405 193.7H925.405ZM947.355 219.5C954.271 219.5 959.802 217.512 963.56 213.217L960.55 210.583C957.774 213.755 953.505 215.5 947.355 215.5V219.5ZM963.554 213.223C967.527 208.721 969.305 201.832 969.305 193H965.305C965.305 201.435 963.582 207.146 960.555 210.577L963.554 213.223ZM969.305 193C969.305 182.42 966.897 173.068 962.015 165.013L958.594 167.087C963.046 174.432 965.305 183.046 965.305 193H969.305ZM962.029 165.036C957.197 156.823 948.371 147.204 935.718 136.191L933.092 139.209C945.639 150.129 954.079 159.41 958.581 167.064L962.029 165.036ZM935.728 136.2C919.935 122.266 909.04 109.839 902.898 98.9195L899.412 100.881C905.87 112.361 917.141 125.134 933.081 139.2L935.728 136.2ZM902.906 98.9348C896.784 87.8233 893.705 75.3271 893.705 61.4H889.705C889.705 75.9396 892.926 89.11 899.403 100.865L902.906 98.9348ZM893.705 61.4C893.705 42.3602 898.518 27.981 907.867 17.9646L904.943 15.2354C894.691 26.219 889.705 41.7065 889.705 61.4H893.705ZM907.882 17.9485C917.202 7.74086 930.83 2.49998 949.105 2.49998V-1.50002C930.046 -1.50002 915.208 3.99245 904.928 15.2514L907.882 17.9485ZM949.105 2.49998C967.142 2.49998 980.397 7.73714 989.245 17.9123L992.264 15.2876C982.445 3.99617 967.934 -1.50002 949.105 -1.50002V2.49998ZM989.276 17.947C998.394 27.9547 1003.1 42.5671 1003.1 62.1H1007.1C1007.1 41.9662 1002.25 26.2453 992.233 15.253L989.276 17.947ZM1003.1 62.1V72.25H1007.1V62.1H1003.1ZM1005.1 70.25H968.705V74.25H1005.1V70.25ZM970.705 72.25V59.65H966.705V72.25H970.705ZM970.705 59.65C970.705 51.075 969.053 44.4108 965.31 40.133L962.3 42.767C965.09 45.9559 966.705 51.425 966.705 59.65H970.705ZM965.349 40.1786C961.617 35.6472 956.204 33.5 949.455 33.5V37.5C955.305 37.5 959.459 39.3195 962.261 42.7214L965.349 40.1786ZM949.455 33.5C942.614 33.5 937.158 35.6023 933.471 40.0935C929.847 44.5091 928.205 50.9104 928.205 58.95H932.205C932.205 51.3562 933.771 46.0325 936.563 42.6315C939.293 39.306 943.462 37.5 949.455 37.5V33.5ZM928.205 58.95C928.205 68.1881 930.641 76.8291 935.494 84.8366L938.915 82.7634C934.435 75.3709 932.205 67.4453 932.205 58.95H928.205ZM935.517 84.8737C940.573 92.8183 949.496 102.302 962.142 113.309L964.768 110.291C952.214 99.3648 943.636 90.1817 938.892 82.7262L935.517 84.8737ZM962.142 113.309C978.161 127.239 989.037 139.766 994.938 150.887L998.471 149.013C992.239 137.267 980.948 124.361 964.767 110.291L962.142 113.309ZM994.938 150.887C1000.82 161.982 1003.8 175.065 1003.8 190.2H1007.8C1007.8 174.535 1004.72 160.785 998.471 149.013L994.938 150.887ZM1003.8 190.2C1003.8 209.948 998.871 224.789 989.294 235.034L992.216 237.766C1002.71 226.544 1007.8 210.586 1007.8 190.2H1003.8ZM989.278 235.051C979.962 245.254 966.221 250.5 947.705 250.5V254.5C966.988 254.5 981.947 249.013 992.232 237.749L989.278 235.051Z" fill="white"/>
</svg>
