<svg width="639" height="181" viewBox="0 0 639 181" fill="none" xmlns="http://www.w3.org/2000/svg">
<path d="M28.75 28H30.75V26H28.75V28ZM0 28H-2V30H0V28ZM0 2.99999V0.999989H-2V2.99999H0ZM85 2.99999H87V0.999989H85V2.99999ZM85 28V30H87V28H85ZM56.25 28V26H54.25V28H56.25ZM56.25 178V180H58.25V178H56.25ZM28.75 178H26.75V180H28.75V178ZM28.75 26H0V30H28.75V26ZM2 28V2.99999H-2V28H2ZM0 4.99999H85V0.999989H0V4.99999ZM83 2.99999V28H87V2.99999H83ZM85 26H56.25V30H85V26ZM54.25 28V178H58.25V28H54.25ZM56.25 176H28.75V180H56.25V176ZM30.75 178V28H26.75V178H30.75ZM108.09 2.99999V0.999989H106.389L106.116 2.67851L108.09 2.99999ZM145.34 2.99999L147.314 2.67851L147.04 0.999989H145.34V2.99999ZM173.84 178V180H176.192L175.814 177.679L173.84 178ZM146.34 178L144.36 178.285L144.607 180H146.34V178ZM141.34 143.25L143.319 142.965L139.34 143.25H141.34ZM141.34 143.75V145.75H143.34V143.75H141.34ZM110.09 143.75V141.75H108.361L108.111 143.461L110.09 143.75ZM105.09 178V180H106.819L107.069 178.289L105.09 178ZM79.5898 178L77.6159 177.679L77.2378 180H79.5898V178ZM138.09 120V122H140.393L140.07 119.72L138.09 120ZM125.84 33.5L127.82 33.2196L127.577 31.5H125.84V33.5ZM125.34 33.5V31.5H123.598L123.359 33.2252L125.34 33.5ZM113.34 120L111.359 119.725L111.043 122H113.34V120ZM108.09 4.99999H145.34V0.999989H108.09V4.99999ZM143.366 3.32147L171.866 178.321L175.814 177.679L147.314 2.67851L143.366 3.32147ZM173.84 176H146.34V180H173.84V176ZM148.319 177.715L143.319 142.965L139.36 143.535L144.36 178.285L148.319 177.715ZM139.34 143.25V143.75H143.34V143.25H139.34ZM141.34 141.75H110.09V145.75H141.34V141.75ZM108.111 143.461L103.111 177.711L107.069 178.289L112.069 144.039L108.111 143.461ZM105.09 176H79.5898V180H105.09V176ZM81.5638 178.321L110.064 3.32147L106.116 2.67851L77.6159 177.679L81.5638 178.321ZM140.07 119.72L127.82 33.2196L123.86 33.7804L136.11 120.28L140.07 119.72ZM125.84 31.5H125.34V35.5H125.84V31.5ZM123.359 33.2252L111.359 119.725L115.321 120.275L127.321 33.7748L123.359 33.2252ZM113.34 122H138.09V118H113.34V122ZM187.182 2.99999V0.999989H185.182V2.99999H187.182ZM214.682 2.99999H216.682V0.999989H214.682V2.99999ZM214.682 153H212.682V155H214.682V153ZM259.932 153H261.932V151H259.932V153ZM259.932 178V180H261.932V178H259.932ZM187.182 178H185.182V180H187.182V178ZM187.182 4.99999H214.682V0.999989H187.182V4.99999ZM212.682 2.99999V153H216.682V2.99999H212.682ZM214.682 155H259.932V151H214.682V155ZM257.932 153V178H261.932V153H257.932ZM259.932 176H187.182V180H259.932V176ZM189.182 178V2.99999H185.182V178H189.182ZM273.119 2.99999V0.999989H271.119V2.99999H273.119ZM348.119 2.99999H350.119V0.999989H348.119V2.99999ZM348.119 28V30H350.119V28H348.119ZM300.619 28V26H298.619V28H300.619ZM300.619 74.25H298.619V76.25H300.619V74.25ZM338.369 74.25H340.369V72.25H338.369V74.25ZM338.369 99.25V101.25H340.369V99.25H338.369ZM300.619 99.25V97.25H298.619V99.25H300.619ZM300.619 153H298.619V155H300.619V153ZM348.119 153H350.119V151H348.119V153ZM348.119 178V180H350.119V178H348.119ZM273.119 178H271.119V180H273.119V178ZM273.119 4.99999H348.119V0.999989H273.119V4.99999ZM346.119 2.99999V28H350.119V2.99999H346.119ZM348.119 26H300.619V30H348.119V26ZM298.619 28V74.25H302.619V28H298.619ZM300.619 76.25H338.369V72.25H300.619V76.25ZM336.369 74.25V99.25H340.369V74.25H336.369ZM338.369 97.25H300.619V101.25H338.369V97.25ZM298.619 99.25V153H302.619V99.25H298.619ZM300.619 155H348.119V151H300.619V155ZM346.119 153V178H350.119V153H346.119ZM348.119 176H273.119V180H348.119V176ZM275.119 178V2.99999H271.119V178H275.119ZM363.939 2.99999V0.999989H361.939V2.99999H363.939ZM398.439 2.99999L400.377 2.50513L399.993 0.999989H398.439V2.99999ZM425.189 107.75L423.252 108.245L423.636 109.75H425.189V107.75ZM425.689 107.75V109.75H427.689V107.75H425.689ZM425.689 2.99999V0.999989H423.689V2.99999H425.689ZM450.189 2.99999H452.189V0.999989H450.189V2.99999ZM450.189 178V180H452.189V178H450.189ZM421.939 178L420.003 178.5L420.39 180H421.939V178ZM388.939 50.25L390.876 49.7498L390.488 48.25H388.939V50.25ZM388.439 50.25V48.25H386.439V50.25H388.439ZM388.439 178V180H390.439V178H388.439ZM363.939 178H361.939V180H363.939V178ZM363.939 4.99999H398.439V0.999989H363.939V4.99999ZM396.502 3.49485L423.252 108.245L427.127 107.255L400.377 2.50513L396.502 3.49485ZM425.189 109.75H425.689V105.75H425.189V109.75ZM427.689 107.75V2.99999H423.689V107.75H427.689ZM425.689 4.99999H450.189V0.999989H425.689V4.99999ZM448.189 2.99999V178H452.189V2.99999H448.189ZM450.189 176H421.939V180H450.189V176ZM423.876 177.5L390.876 49.7498L387.003 50.7502L420.003 178.5L423.876 177.5ZM388.939 48.25H388.439V52.25H388.939V48.25ZM386.439 50.25V178H390.439V50.25H386.439ZM388.439 176H363.939V180H388.439V176ZM365.939 178V2.99999H361.939V178H365.939ZM492.129 28H494.129V26H492.129V28ZM463.379 28H461.379V30H463.379V28ZM463.379 2.99999V0.999989H461.379V2.99999H463.379ZM548.379 2.99999H550.379V0.999989H548.379V2.99999ZM548.379 28V30H550.379V28H548.379ZM519.629 28V26H517.629V28H519.629ZM519.629 178V180H521.629V178H519.629ZM492.129 178H490.129V180H492.129V178ZM492.129 26H463.379V30H492.129V26ZM465.379 28V2.99999H461.379V28H465.379ZM463.379 4.99999H548.379V0.999989H463.379V4.99999ZM546.379 2.99999V28H550.379V2.99999H546.379ZM548.379 26H519.629V30H548.379V26ZM517.629 28V178H521.629V28H517.629ZM519.629 176H492.129V180H519.629V176ZM494.129 178V28H490.129V178H494.129ZM567.193 169.25L565.7 170.581L565.708 170.589L565.715 170.597L567.193 169.25ZM556.943 126.5V124.5H554.943V126.5H556.943ZM582.943 126.5H584.943V124.5H582.943V126.5ZM607.693 151.5L606.194 150.177L606.188 150.183L607.693 151.5ZM606.443 118.75L604.719 119.764L604.726 119.775L604.733 119.787L606.443 118.75ZM587.943 98.5L586.62 99.9997L586.63 100.009L587.943 98.5ZM564.193 71.5L562.442 72.4652L562.446 72.4729L562.45 72.4805L564.193 71.5ZM567.943 12L569.405 13.3646L569.413 13.3566L569.42 13.3485L567.943 12ZM628.193 12L626.684 13.3123L626.699 13.3298L626.715 13.347L628.193 12ZM638.443 51.75V53.75H640.443V51.75H638.443ZM612.443 51.75H610.443V53.75H612.443V51.75ZM608.943 29.75L607.399 31.0214L607.419 31.0445L607.438 31.067L608.943 29.75ZM589.943 60L588.233 61.0366L588.244 61.0553L588.256 61.0737L589.943 60ZM608.693 80L607.38 81.5086L607.381 81.5092L608.693 80ZM632.443 107.25L630.677 108.187L632.443 107.25ZM628.193 169L626.732 167.634L626.724 167.643L626.716 167.651L628.193 169ZM597.443 178.5C584.486 178.5 575.017 174.867 568.672 167.903L565.715 170.597C573.037 178.633 583.734 182.5 597.443 182.5V178.5ZM568.686 167.919C562.286 160.738 558.943 150.363 558.943 136.5H554.943C554.943 150.971 558.435 162.429 565.7 170.581L568.686 167.919ZM558.943 136.5V126.5H554.943V136.5H558.943ZM556.943 128.5H582.943V124.5H556.943V128.5ZM580.943 126.5V138.5H584.943V126.5H580.943ZM580.943 138.5C580.943 144.397 582.172 149.193 584.973 152.535C587.831 155.944 592.033 157.5 597.193 157.5V153.5C592.853 153.5 589.931 152.222 588.039 149.965C586.09 147.64 584.943 143.936 584.943 138.5H580.943ZM597.193 157.5C602.243 157.5 606.374 156.045 609.198 152.817L606.188 150.183C604.346 152.288 601.477 153.5 597.193 153.5V157.5ZM609.193 152.823C612.166 149.454 613.443 144.365 613.443 138H609.443C609.443 143.968 608.221 147.879 606.194 150.177L609.193 152.823ZM613.443 138C613.443 130.354 611.702 123.568 608.154 117.713L604.733 119.787C607.851 124.932 609.443 130.98 609.443 138H613.443ZM608.167 117.736C604.669 111.79 598.309 104.871 589.256 96.9914L586.63 100.009C595.577 107.796 601.551 114.377 604.719 119.764L608.167 117.736ZM589.267 97.0003C578.007 87.0656 570.279 78.2386 565.937 70.5195L562.45 72.4805C567.108 80.7614 575.213 89.9344 586.62 99.9997L589.267 97.0003ZM565.945 70.5348C561.622 62.69 559.443 53.8604 559.443 44H555.443C555.443 54.4729 557.764 63.9767 562.442 72.4652L565.945 70.5348ZM559.443 44C559.443 30.4935 562.857 20.381 569.405 13.3646L566.481 10.6354C559.03 18.619 555.443 29.8398 555.443 44H559.443ZM569.42 13.3485C575.94 6.20753 585.502 2.49999 598.443 2.49999V-1.50001C584.718 -1.50001 573.946 2.45912 566.466 10.6515L569.42 13.3485ZM598.443 2.49999C611.214 2.49999 620.503 6.20381 626.684 13.3123L629.703 10.6876C622.551 2.46284 612.006 -1.50001 598.443 -1.50001V2.49999ZM626.715 13.347C633.1 20.3547 636.443 30.6338 636.443 44.5H640.443C640.443 30.0329 636.954 18.6453 629.672 10.653L626.715 13.347ZM636.443 44.5V51.75H640.443V44.5H636.443ZM638.443 49.75H612.443V53.75H638.443V49.75ZM614.443 51.75V42.75H610.443V51.75H614.443ZM614.443 42.75C614.443 36.575 613.258 31.6441 610.448 28.433L607.438 31.067C609.295 33.1892 610.443 36.925 610.443 42.75H614.443ZM610.487 28.4786C607.689 25.0805 603.643 23.5 598.693 23.5V27.5C602.744 27.5 605.531 28.7528 607.399 31.0214L610.487 28.4786ZM598.693 23.5C593.686 23.5 589.605 25.044 586.835 28.4185C584.127 31.7174 582.943 36.4437 582.943 42.25H586.943C586.943 36.8896 588.051 33.2409 589.927 30.9565C591.74 28.7477 594.534 27.5 598.693 27.5V23.5ZM582.943 42.25C582.943 48.9548 584.713 55.2291 588.233 61.0366L591.654 58.9634C588.507 53.7709 586.943 48.2119 586.943 42.25H582.943ZM588.256 61.0737C591.912 66.8183 598.334 73.6352 607.38 81.5086L610.006 78.4914C601.052 70.6981 594.975 64.1817 591.631 58.9262L588.256 61.0737ZM607.381 81.5092C618.8 91.4388 626.509 100.333 630.677 108.187L634.21 106.313C629.711 97.8335 621.587 88.5612 610.006 78.4908L607.381 81.5092ZM630.677 108.187C634.83 116.015 636.943 125.265 636.943 136H640.943C640.943 124.735 638.723 114.818 634.21 106.313L630.677 108.187ZM636.943 136C636.943 150.014 633.443 160.456 626.732 167.634L629.654 170.366C637.277 162.211 640.943 150.652 640.943 136H636.943ZM626.716 167.651C620.201 174.787 610.56 178.5 597.443 178.5V182.5C611.327 182.5 622.186 178.546 629.67 170.349L626.716 167.651Z" fill="white"/>
</svg>
