<svg width="839" height="181" viewBox="0 0 839 181" fill="none" xmlns="http://www.w3.org/2000/svg">
<path d="M11.3408 169L12.8019 167.634L11.3408 169ZM11.3408 12L12.8019 13.3658L11.3408 12ZM73.3408 12L71.8798 13.3658V13.3658L73.3408 12ZM73.3408 169L71.8798 167.634L73.3408 169ZM42.3408 178.5C29.2269 178.5 19.4893 174.788 12.8019 167.634L9.87977 170.366C17.5257 178.545 28.4547 182.5 42.3408 182.5V178.5ZM12.8019 167.634C6.08399 160.448 2.59082 150.166 2.59082 136.5H-1.40918C-1.40918 150.834 2.26431 162.219 9.87977 170.366L12.8019 167.634ZM2.59082 136.5V44.5H-1.40918V136.5H2.59082ZM2.59082 44.5C2.59082 30.8339 6.08399 20.5523 12.8019 13.3658L9.87977 10.6342C2.26431 18.781 -1.40918 30.1661 -1.40918 44.5H2.59082ZM12.8019 13.3658C19.4893 6.21175 29.2269 2.49999 42.3408 2.49999V-1.50001C28.4547 -1.50001 17.5257 2.4549 9.87977 10.6342L12.8019 13.3658ZM42.3408 2.49999C55.4547 2.49999 65.1923 6.21175 71.8798 13.3658L74.8019 10.6342C67.156 2.4549 56.227 -1.50001 42.3408 -1.50001V2.49999ZM71.8798 13.3658C78.5976 20.5523 82.0908 30.8339 82.0908 44.5H86.0908C86.0908 30.1661 82.4173 18.781 74.8019 10.6342L71.8798 13.3658ZM82.0908 44.5V136.5H86.0908V44.5H82.0908ZM82.0908 136.5C82.0908 150.166 78.5976 160.448 71.8798 167.634L74.8019 170.366C82.4173 162.219 86.0908 150.834 86.0908 136.5H82.0908ZM71.8798 167.634C65.1923 174.788 55.4547 178.5 42.3408 178.5V182.5C56.227 182.5 67.156 178.545 74.8019 170.366L71.8798 167.634ZM42.3408 157.5C47.5105 157.5 51.7154 155.917 54.5702 152.461C57.3646 149.079 58.5908 144.225 58.5908 138.25H54.5908C54.5908 143.775 53.442 147.546 51.4864 149.914C49.5912 152.208 46.6712 153.5 42.3408 153.5V157.5ZM58.5908 138.25V42.75H54.5908V138.25H58.5908ZM58.5908 42.75C58.5908 36.7748 57.3646 31.9214 54.5702 28.5387C51.7154 25.0829 47.5105 23.5 42.3408 23.5V27.5C46.6712 27.5 49.5912 28.7921 51.4864 31.0863C53.442 33.4536 54.5908 37.2252 54.5908 42.75H58.5908ZM42.3408 23.5C37.1712 23.5 32.9662 25.0829 30.1114 28.5387C27.317 31.9214 26.0908 36.7748 26.0908 42.75H30.0908C30.0908 37.2252 31.2396 33.4536 33.1952 31.0863C35.0904 28.7921 38.0105 27.5 42.3408 27.5V23.5ZM26.0908 42.75V138.25H30.0908V42.75H26.0908ZM26.0908 138.25C26.0908 144.225 27.317 149.079 30.1114 152.461C32.9662 155.917 37.1712 157.5 42.3408 157.5V153.5C38.0105 153.5 35.0904 152.208 33.1952 149.914C31.2396 147.546 30.0908 143.775 30.0908 138.25H26.0908ZM112.188 169.25L110.712 170.599L110.719 170.607L110.726 170.615L112.188 169.25ZM101.688 2.99999V0.999989H99.6885V2.99999H101.688ZM129.188 2.99999H131.188V0.999989H129.188V2.99999ZM132.688 151.5L131.183 152.817L131.206 152.843L131.229 152.868L132.688 151.5ZM153.438 151.5L151.979 150.132L151.956 150.157L151.933 150.183L153.438 151.5ZM157.188 2.99999V0.999989H155.188V2.99999H157.188ZM183.688 2.99999H185.688V0.999989H183.688V2.99999ZM173.188 169.25L174.651 170.615L174.658 170.607L174.665 170.599L173.188 169.25ZM142.688 178.5C129.734 178.5 120.167 174.868 113.651 167.885L110.726 170.615C118.209 178.632 128.976 182.5 142.688 182.5V178.5ZM113.665 167.901C107.108 160.72 103.688 150.352 103.688 136.5H99.6885C99.6885 150.982 103.269 162.447 110.712 170.599L113.665 167.901ZM103.688 136.5V2.99999H99.6885V136.5H103.688ZM101.688 4.99999H129.188V0.999989H101.688V4.99999ZM127.188 2.99999V138.5H131.188V2.99999H127.188ZM127.188 138.5C127.188 144.675 128.374 149.606 131.183 152.817L134.194 150.183C132.337 148.061 131.188 144.325 131.188 138.5H127.188ZM131.229 152.868C134.192 156.028 138.273 157.5 143.188 157.5V153.5C139.104 153.5 136.185 152.305 134.148 150.132L131.229 152.868ZM143.188 157.5C148.098 157.5 152.133 156.029 154.944 152.817L151.933 150.183C150.078 152.304 147.279 153.5 143.188 153.5V157.5ZM154.898 152.868C157.91 149.655 159.188 144.701 159.188 138.5H155.188C155.188 144.299 153.967 148.012 151.979 150.132L154.898 152.868ZM159.188 138.5V2.99999H155.188V138.5H159.188ZM157.188 4.99999H183.688V0.999989H157.188V4.99999ZM181.688 2.99999V136.5H185.688V2.99999H181.688ZM181.688 136.5C181.688 150.352 178.269 160.72 171.712 167.901L174.665 170.599C182.108 162.447 185.688 150.982 185.688 136.5H181.688ZM171.726 167.885C165.209 174.868 155.643 178.5 142.688 178.5V182.5C156.401 182.5 167.167 178.632 174.651 170.615L171.726 167.885ZM203.274 2.99999V0.999989H201.274V2.99999H203.274ZM275.024 13L273.592 14.3962L273.601 14.4053L273.61 14.4142L275.024 13ZM266.774 88.5L266.027 86.6448L264.774 87.1494V88.5H266.774ZM266.774 89H264.774V90.4881L266.2 90.9156L266.774 89ZM280.774 101.25L278.939 102.044L278.948 102.065L278.957 102.085L280.774 101.25ZM285.524 169L283.535 169.209L283.537 169.221L285.524 169ZM288.024 178V180H291.102L289.852 177.188L288.024 178ZM260.024 178L258.138 178.666L258.609 180H260.024V178ZM253.524 107.75L251.955 108.989L251.974 109.014L251.995 109.038L253.524 107.75ZM230.774 103V101H228.774V103H230.774ZM230.774 178V180H232.774V178H230.774ZM203.274 178H201.274V180H203.274V178ZM253.024 73.75L251.61 72.3358L251.589 72.3572L251.568 72.3793L253.024 73.75ZM253.774 32.25L252.186 33.4649L252.208 33.4936L252.231 33.5214L253.774 32.25ZM230.774 28V26H228.774V28H230.774ZM230.774 78H228.774V80H230.774V78ZM203.274 4.99999H244.024V0.999989H203.274V4.99999ZM244.024 4.99999C257.929 4.99999 267.626 8.27703 273.592 14.3962L276.456 11.6038C269.423 4.38961 258.453 0.999989 244.024 0.999989V4.99999ZM273.61 14.4142C279.586 20.3903 282.774 29.8577 282.774 43.25H286.774C286.774 29.3089 283.463 18.6097 276.439 11.5858L273.61 14.4142ZM282.774 43.25V54H286.774V43.25H282.774ZM282.774 54C282.774 62.8828 281.305 69.9517 278.501 75.3249C275.721 80.6538 271.584 84.4066 266.027 86.6448L267.522 90.3552C273.965 87.76 278.828 83.3462 282.048 77.1751C285.244 71.0483 286.774 63.2839 286.774 54H282.774ZM264.774 88.5V89H268.774V88.5H264.774ZM266.2 90.9156C272.324 92.7531 276.516 96.4408 278.939 102.044L282.61 100.456C279.7 93.7258 274.558 89.2469 267.349 87.0844L266.2 90.9156ZM278.957 102.085C281.624 107.889 283.024 115.819 283.024 126H287.024C287.024 115.515 285.592 106.944 282.592 100.415L278.957 102.085ZM283.024 126V156.75H287.024V126H283.024ZM283.024 156.75C283.024 161.785 283.192 165.946 283.535 169.209L287.513 168.791C287.19 165.721 287.024 161.715 287.024 156.75H283.024ZM283.537 169.221C283.895 172.442 284.787 175.641 286.197 178.812L289.852 177.188C288.595 174.359 287.821 171.558 287.512 168.779L283.537 169.221ZM288.024 176H260.024V180H288.024V176ZM261.91 177.334C260.948 174.607 260.319 172.076 260.007 169.736L256.042 170.264C256.397 172.924 257.101 175.726 258.138 178.666L261.91 177.334ZM260.007 169.736C259.693 167.384 259.524 163.007 259.524 156.5H255.524C255.524 162.993 255.689 167.616 256.042 170.264L260.007 169.736ZM259.524 156.5V124.5H255.524V156.5H259.524ZM259.524 124.5C259.524 116.408 258.202 110.2 255.054 106.462L251.995 109.038C254.18 111.634 255.524 116.592 255.524 124.5H259.524ZM255.094 106.511C252.04 102.643 246.868 101 240.274 101V105C246.347 105 250.008 106.524 251.955 108.989L255.094 106.511ZM240.274 101H230.774V105H240.274V101ZM228.774 103V178H232.774V103H228.774ZM230.774 176H203.274V180H230.774V176ZM205.274 178V2.99999H201.274V178H205.274ZM240.774 80C246.593 80 251.302 78.4985 254.481 75.1207L251.568 72.3793C249.414 74.6682 245.956 76 240.774 76V80ZM254.439 75.1642C257.831 71.7723 259.274 66.3639 259.274 59.5H255.274C255.274 65.9694 253.885 70.061 251.61 72.3358L254.439 75.1642ZM259.274 59.5V46H255.274V59.5H259.274ZM259.274 46C259.274 39.5079 258.095 34.3503 255.318 30.9786L252.231 33.5214C254.121 35.8164 255.274 39.8254 255.274 46H259.274ZM255.363 31.0351C252.694 27.5446 248.493 26 243.274 26V30C247.722 30 250.522 31.2887 252.186 33.4649L255.363 31.0351ZM243.274 26H230.774V30H243.274V26ZM228.774 28V78H232.774V28H228.774ZM230.774 80H240.774V76H230.774V80ZM365.644 28H367.644V26H365.644V28ZM336.894 28H334.894V30H336.894V28ZM336.894 2.99999V0.999989H334.894V2.99999H336.894ZM421.894 2.99999H423.894V0.999989H421.894V2.99999ZM421.894 28V30H423.894V28H421.894ZM393.144 28V26H391.144V28H393.144ZM393.144 178V180H395.144V178H393.144ZM365.644 178H363.644V180H365.644V178ZM365.644 26H336.894V30H365.644V26ZM338.894 28V2.99999H334.894V28H338.894ZM336.894 4.99999H421.894V0.999989H336.894V4.99999ZM419.894 2.99999V28H423.894V2.99999H419.894ZM421.894 26H393.144V30H421.894V26ZM391.144 28V178H395.144V28H391.144ZM393.144 176H365.644V180H393.144V176ZM367.644 178V28H363.644V178H367.644ZM435.208 2.99999V0.999989H433.208V2.99999H435.208ZM510.208 2.99999H512.208V0.999989H510.208V2.99999ZM510.208 28V30H512.208V28H510.208ZM462.708 28V26H460.708V28H462.708ZM462.708 74.25H460.708V76.25H462.708V74.25ZM500.458 74.25H502.458V72.25H500.458V74.25ZM500.458 99.25V101.25H502.458V99.25H500.458ZM462.708 99.25V97.25H460.708V99.25H462.708ZM462.708 153H460.708V155H462.708V153ZM510.208 153H512.208V151H510.208V153ZM510.208 178V180H512.208V178H510.208ZM435.208 178H433.208V180H435.208V178ZM435.208 4.99999H510.208V0.999989H435.208V4.99999ZM508.208 2.99999V28H512.208V2.99999H508.208ZM510.208 26H462.708V30H510.208V26ZM460.708 28V74.25H464.708V28H460.708ZM462.708 76.25H500.458V72.25H462.708V76.25ZM498.458 74.25V99.25H502.458V74.25H498.458ZM500.458 97.25H462.708V101.25H500.458V97.25ZM460.708 99.25V153H464.708V99.25H460.708ZM462.708 155H510.208V151H462.708V155ZM508.208 153V178H512.208V153H508.208ZM510.208 176H435.208V180H510.208V176ZM437.208 178V2.99999H433.208V178H437.208ZM547.278 2.99999V0.999989H545.578L545.304 2.67851L547.278 2.99999ZM584.528 2.99999L586.502 2.67851L586.229 0.999989H584.528V2.99999ZM613.028 178V180H615.38L615.002 177.679L613.028 178ZM585.528 178L583.549 178.285L583.795 180H585.528V178ZM580.528 143.25L582.508 142.965L578.528 143.25H580.528ZM580.528 143.75V145.75H582.528V143.75H580.528ZM549.278 143.75V141.75H547.549L547.299 143.461L549.278 143.75ZM544.278 178V180H546.008L546.257 178.289L544.278 178ZM518.778 178L516.804 177.679L516.426 180H518.778V178ZM577.278 120V122H579.582L579.259 119.72L577.278 120ZM565.028 33.5L567.009 33.2196L566.765 31.5H565.028V33.5ZM564.528 33.5V31.5H562.787L562.547 33.2252L564.528 33.5ZM552.528 120L550.547 119.725L550.232 122H552.528V120ZM547.278 4.99999H584.528V0.999989H547.278V4.99999ZM582.554 3.32147L611.054 178.321L615.002 177.679L586.502 2.67851L582.554 3.32147ZM613.028 176H585.528V180H613.028V176ZM587.508 177.715L582.508 142.965L578.549 143.535L583.549 178.285L587.508 177.715ZM578.528 143.25V143.75H582.528V143.25H578.528ZM580.528 141.75H549.278V145.75H580.528V141.75ZM547.299 143.461L542.299 177.711L546.257 178.289L551.257 144.039L547.299 143.461ZM544.278 176H518.778V180H544.278V176ZM520.752 178.321L549.252 3.32147L545.304 2.67851L516.804 177.679L520.752 178.321ZM579.259 119.72L567.009 33.2196L563.048 33.7804L575.298 120.28L579.259 119.72ZM565.028 31.5H564.528V35.5H565.028V31.5ZM562.547 33.2252L550.547 119.725L554.509 120.275L566.509 33.7748L562.547 33.2252ZM552.528 122H577.278V118H552.528V122ZM626.37 2.99999V0.999989H624.37V2.99999H626.37ZM665.62 2.99999L667.601 2.72324L667.36 0.999989H665.62V2.99999ZM683.12 128.25L681.139 128.527L681.38 130.25H683.12V128.25ZM683.62 128.25V130.25H685.36L685.601 128.527L683.62 128.25ZM701.12 2.99999V0.999989H699.38L699.139 2.72324L701.12 2.99999ZM740.37 2.99999H742.37V0.999989H740.37V2.99999ZM740.37 178V180H742.37V178H740.37ZM714.37 178H712.37V180H714.37V178ZM714.37 45.5H716.37V43.5H714.37V45.5ZM713.87 45.5V43.5H712.149L711.893 45.2015L713.87 45.5ZM693.87 178V180H695.591L695.848 178.299L693.87 178ZM670.87 178L668.893 178.299L669.149 180H670.87V178ZM650.87 45.5L652.848 45.2015L652.591 43.5H650.87V45.5ZM650.37 45.5V43.5H648.37V45.5H650.37ZM650.37 178V180H652.37V178H650.37ZM626.37 178H624.37V180H626.37V178ZM626.37 4.99999H665.62V0.999989H626.37V4.99999ZM663.639 3.27674L681.139 128.527L685.101 127.973L667.601 2.72324L663.639 3.27674ZM683.12 130.25H683.62V126.25H683.12V130.25ZM685.601 128.527L703.101 3.27674L699.139 2.72324L681.639 127.973L685.601 128.527ZM701.12 4.99999H740.37V0.999989H701.12V4.99999ZM738.37 2.99999V178H742.37V2.99999H738.37ZM740.37 176H714.37V180H740.37V176ZM716.37 178V45.5H712.37V178H716.37ZM714.37 43.5H713.87V47.5H714.37V43.5ZM711.893 45.2015L691.893 177.701L695.848 178.299L715.848 45.7985L711.893 45.2015ZM693.87 176H670.87V180H693.87V176ZM672.848 177.701L652.848 45.2015L648.893 45.7985L668.893 178.299L672.848 177.701ZM650.87 43.5H650.37V47.5H650.87V43.5ZM648.37 45.5V178H652.37V45.5H648.37ZM650.37 176H626.37V180H650.37V176ZM628.37 178V2.99999H624.37V178H628.37ZM766.392 169.25L764.899 170.581L764.906 170.589L764.913 170.597L766.392 169.25ZM756.142 126.5V124.5H754.142V126.5H756.142ZM782.142 126.5H784.142V124.5H782.142V126.5ZM806.892 151.5L805.392 150.177L805.386 150.183L806.892 151.5ZM805.642 118.75L803.918 119.764L803.924 119.775L803.931 119.787L805.642 118.75ZM787.142 98.5L785.818 99.9997L785.829 100.009L787.142 98.5ZM763.392 71.5L761.64 72.4652L761.644 72.4729L761.648 72.4805L763.392 71.5ZM767.142 12L768.604 13.3646L768.611 13.3566L768.619 13.3485L767.142 12ZM827.392 12L825.882 13.3123L825.898 13.3298L825.913 13.347L827.392 12ZM837.642 51.75V53.75H839.642V51.75H837.642ZM811.642 51.75H809.642V53.75H811.642V51.75ZM808.142 29.75L806.598 31.0214L806.617 31.0445L806.636 31.067L808.142 29.75ZM789.142 60L787.431 61.0366L787.443 61.0553L787.454 61.0737L789.142 60ZM807.892 80L806.579 81.5086L806.579 81.5092L807.892 80ZM831.642 107.25L829.875 108.187L831.642 107.25ZM827.392 169L825.931 167.634L825.923 167.643L825.915 167.651L827.392 169ZM796.642 178.5C783.685 178.5 774.215 174.867 767.87 167.903L764.913 170.597C772.235 178.633 782.932 182.5 796.642 182.5V178.5ZM767.885 167.919C761.484 160.738 758.142 150.363 758.142 136.5H754.142C754.142 150.971 757.633 162.429 764.899 170.581L767.885 167.919ZM758.142 136.5V126.5H754.142V136.5H758.142ZM756.142 128.5H782.142V124.5H756.142V128.5ZM780.142 126.5V138.5H784.142V126.5H780.142ZM780.142 138.5C780.142 144.397 781.37 149.193 784.171 152.535C787.029 155.944 791.232 157.5 796.392 157.5V153.5C792.052 153.5 789.129 152.222 787.237 149.965C785.288 147.64 784.142 143.936 784.142 138.5H780.142ZM796.392 157.5C801.441 157.5 805.572 156.045 808.397 152.817L805.386 150.183C803.544 152.288 800.675 153.5 796.392 153.5V157.5ZM808.391 152.823C811.364 149.454 812.642 144.365 812.642 138H808.642C808.642 143.968 807.419 147.879 805.392 150.177L808.391 152.823ZM812.642 138C812.642 130.354 810.9 123.568 807.352 117.713L803.931 119.787C807.05 124.932 808.642 130.98 808.642 138H812.642ZM807.365 117.736C803.868 111.79 797.508 104.871 788.455 96.9914L785.829 100.009C794.776 107.796 800.749 114.377 803.918 119.764L807.365 117.736ZM788.465 97.0003C777.206 87.0656 769.477 78.2386 765.135 70.5195L761.648 72.4805C766.306 80.7614 774.411 89.9344 785.818 99.9997L788.465 97.0003ZM765.143 70.5348C760.821 62.69 758.642 53.8604 758.642 44H754.642C754.642 54.4729 756.963 63.9767 761.64 72.4652L765.143 70.5348ZM758.642 44C758.642 30.4935 762.055 20.381 768.604 13.3646L765.68 10.6354C758.228 18.619 754.642 29.8398 754.642 44H758.642ZM768.619 13.3485C775.139 6.20753 784.701 2.49999 797.642 2.49999V-1.50001C783.916 -1.50001 773.145 2.45912 765.665 10.6515L768.619 13.3485ZM797.642 2.49999C810.412 2.49999 819.701 6.20381 825.882 13.3123L828.901 10.6876C821.749 2.46284 811.204 -1.50001 797.642 -1.50001V2.49999ZM825.913 13.347C832.298 20.3547 835.642 30.6338 835.642 44.5H839.642C839.642 30.0329 836.152 18.6453 828.87 10.653L825.913 13.347ZM835.642 44.5V51.75H839.642V44.5H835.642ZM837.642 49.75H811.642V53.75H837.642V49.75ZM813.642 51.75V42.75H809.642V51.75H813.642ZM813.642 42.75C813.642 36.575 812.456 31.6441 809.647 28.433L806.636 31.067C808.493 33.1892 809.642 36.925 809.642 42.75H813.642ZM809.685 28.4786C806.887 25.0805 802.841 23.5 797.892 23.5V27.5C801.942 27.5 804.729 28.7528 806.598 31.0214L809.685 28.4786ZM797.892 23.5C792.884 23.5 788.803 25.044 786.033 28.4185C783.325 31.7174 782.142 36.4437 782.142 42.25H786.142C786.142 36.8896 787.25 33.2409 789.125 30.9565C790.938 28.7477 793.732 27.5 797.892 27.5V23.5ZM782.142 42.25C782.142 48.9548 783.911 55.2291 787.431 61.0366L790.852 58.9634C787.705 53.7709 786.142 48.2119 786.142 42.25H782.142ZM787.454 61.0737C791.11 66.8183 797.533 73.6352 806.579 81.5086L809.205 78.4914C800.251 70.6981 794.173 64.1817 790.829 58.9262L787.454 61.0737ZM806.579 81.5092C817.998 91.4388 825.707 100.333 829.875 108.187L833.408 106.313C828.909 97.8335 820.785 88.5612 809.204 78.4908L806.579 81.5092ZM829.875 108.187C834.028 116.015 836.142 125.265 836.142 136H840.142C840.142 124.735 837.921 114.818 833.408 106.313L829.875 108.187ZM836.142 136C836.142 150.014 832.641 160.456 825.931 167.634L828.853 170.366C836.476 162.211 840.142 150.652 840.142 136H836.142ZM825.915 167.651C819.399 174.787 809.758 178.5 796.642 178.5V182.5C810.525 182.5 821.384 178.546 828.869 170.349L825.915 167.651Z" fill="#1C2742"/>
</svg>
